<?xml version="1.0" encoding="UTF-8"?>
<svg viewBox="0 0 379.9625 274.9625" xmlns="http://www.w3.org/2000/svg">
 <g transform="matrix(1.25 0 0 -1.25 0 274.96)">
  <g transform="scale(.24)">
   <path d="m1260.4 56.25c0-27.613-22.39-50-50-50h-1154.2c-27.613 0-50 22.387-50 50v804.17c0 27.613 22.387 50 50 50h1154.2c27.61 0 50-22.387 50-50v-804.17" fill="#fff200"/>
   <path d="m1260.4 56.25c0-27.613-22.39-50-50-50h-1154.2c-27.613 0-50 22.387-50 50v804.17c0 27.613 22.387 50 50 50h1154.2c27.61 0 50-22.387 50-50v-804.17z" fill="none" stroke="#231f20" stroke-width="12.5"/>
   <path d="m1231.2 660.42c0-27.617-22.39-50-50-50h-1095.8c-27.617 0-50 22.383-50 50v179.16c0 27.617 22.383 50 50 50h1095.8c27.61 0 50-22.383 50-50v-179.16" fill="#231f20"/>
   <path d="m197.14 730.47 35.156-10.938c-5.375-19.644-14.316-34.238-26.816-43.769-12.5-9.539-28.36-14.305-47.575-14.305-23.781 0-43.328 8.133-58.636 24.398s-22.965 38.504-22.965 66.719c0 29.844 7.6914 53.02 23.082 69.531s35.617 24.77 60.699 24.77c21.902 0 39.691-6.469 53.371-19.402 8.137-7.645 14.246-18.625 18.317-32.942l-35.676-8.593c-2.121 9.253-6.543 16.554-13.27 21.91s-14.898 8.039-24.519 8.039c-13.293 0-24.078-4.77-32.352-14.301-8.277-9.531-12.41-24.977-12.41-46.32 0-22.653 4.062-38.786 12.203-48.399 8.133-9.613 18.707-14.418 31.731-14.418 9.597 0 17.851 3.055 24.769 9.168 6.914 6.11 11.879 15.731 14.891 28.852" fill="#fff200"/>
   <path d="m424.81 664.58h-38.981l-15.477 40.625h-72.074l-14.82-40.625h-38.336l69.438 178.91h38.175l72.075-178.91zm-66.25 70.836-25.028 66.406-24.226-66.406h49.254" fill="#fff200"/>
   <path d="m443.9 843.49h36.196v-97.035c0-15.402 0.445-25.383 1.336-29.945 1.539-7.332 5.199-13.219 10.984-17.66s13.703-6.66 23.738-6.66c10.2 0 17.887 2.093 23.067 6.292s8.297 9.348 9.347 15.461 1.582 16.254 1.582 30.43v99.117h36.196v-94.14c0-21.52-0.977-36.723-2.926-45.606-1.949-8.887-5.543-16.383-10.781-22.496s-12.25-10.98-21.02-14.609-20.23-5.438-34.363-5.438c-17.063 0-29.996 1.977-38.813 5.926-8.812 3.957-15.777 9.09-20.898 15.406s-8.492 12.942-10.113 19.871c-2.356 10.27-3.532 25.426-3.532 45.477v95.609" fill="#fff200"/>
   <path d="m665.06 664.58v148.7h-53.125v30.207h142.19v-30.207h-52.863v-148.7h-36.199" fill="#fff200"/>
   <path d="m776.1 664.58h36.199v178.91h-36.199v-178.91z" fill="#fff200"/>
   <path d="m839.32 752.93c0 18.289 2.723 33.644 8.18 46.054 4.07 9.141 9.629 17.348 16.676 24.617 7.043 7.266 14.758 12.653 23.148 16.165 11.153 4.738 24.02 7.105 38.598 7.105 26.387 0 47.496-8.207 63.336-24.617s23.756-39.235 23.756-68.465c0-28.988-7.86-51.668-23.572-68.039-15.719-16.375-36.727-24.555-63.032-24.555-26.625 0-47.801 8.141-63.515 24.434-15.719 16.289-23.575 38.719-23.575 67.301zm37.239 1.226c0-20.336 4.687-35.75 14.066-46.238s21.289-15.734 35.727-15.734 26.281 5.203 35.539 15.613c9.254 10.406 13.886 26.023 13.886 46.847 0 20.571-4.507 35.922-13.523 46.047-9.012 10.125-20.977 15.192-35.902 15.192s-26.957-5.129-36.094-15.375c-9.133-10.246-13.699-25.699-13.699-46.352" fill="#fff200"/>
   <path d="m1041.1 664.58v178.91h34.93l73.92-120.36v120.36h33.33v-178.91h-36.04l-72.81 118.07v-118.07h-33.33" fill="#fff200"/>
   <path d="m176.434,480.859h27.453c6.191,0 10.91-.476 14.16-1.425 4.363-1.289 8.101-3.579 11.215-6.871s5.48-7.321 7.101-12.09c1.625-4.766 2.438-10.645 2.438-17.629 0-6.141-.758-11.438-2.281-15.883-1.864-5.426-4.52-9.82-7.969-13.18-2.606-2.543-6.125-4.527-10.555-5.953-3.316-1.055-7.75-1.578-13.297-1.578h-28.265v74.609zm15.101-12.629v-49.351h11.199c4.188,0 7.211.238 9.071.715 2.433.605 4.453,1.636 6.054,3.094 1.606,1.457 2.914,3.859 3.93,7.195 1.012,3.336 1.52,7.887 1.52,13.648s-.508,10.18-1.52,13.266c-1.016,3.082-2.434,5.484-4.258,7.219-1.824,1.722-4.136,2.89-6.941,3.5-2.094.476-6.203.714-12.317.714h-6.738" fill="#231f20"/>
   <path d="m176.434,480.859h27.453c6.191,0 10.91-.476 14.16-1.425 4.363-1.289 8.101-3.579 11.215-6.871s5.48-7.321 7.101-12.09c1.625-4.766 2.438-10.645 2.438-17.629 0-6.141-.758-11.438-2.281-15.883-1.864-5.426-4.52-9.82-7.969-13.18-2.606-2.543-6.125-4.527-10.555-5.953-3.316-1.055-7.75-1.578-13.297-1.578h-28.265v74.609zm15.101-12.629v-49.351h11.199c4.188,0 7.211.238 9.071.715 2.433.605 4.453,1.636 6.054,3.094 1.606,1.457 2.914,3.859 3.93,7.195 1.012,3.336 1.52,7.887 1.52,13.648s-.508,10.18-1.52,13.266c-1.016,3.082-2.434,5.484-4.258,7.219-1.824,1.722-4.136,2.89-6.941,3.5-2.094.476-6.203.714-12.317.714h-6.738z" fill="none" stroke="#231f20" stroke-width="1.6667"/>
   <path d="m248.53 442.97c0 7.601 1.137 13.984 3.407 19.148 1.695 3.801 4.007 7.211 6.937 10.238 2.93 3.02 6.141 5.262 9.633 6.723 4.64 1.969 9.992 2.953 16.055 2.953 10.976 0 19.761-3.414 26.351-10.238 6.59-6.828 9.883-16.316 9.883-28.469 0-12.058-3.27-21.488-9.805-28.293-6.539-6.812-15.281-10.215-26.222-10.215-11.082 0-19.891 3.387-26.43 10.161-6.539 6.777-9.809 16.101-9.809 27.992zm15.496 0.504c0-8.45 1.953-14.86 5.856-19.223s8.855-6.543 14.859-6.543 10.934 2.164 14.785 6.496 5.778 10.82 5.778 19.473c0 8.558-1.875 14.941-5.625 19.148s-8.731 6.317-14.938 6.317-11.215-2.133-15.012-6.387c-3.8-4.266-5.703-10.688-5.703-19.281" fill="#231f20"/>
   <path d="m248.53 442.97c0 7.601 1.137 13.984 3.407 19.148 1.695 3.801 4.007 7.211 6.937 10.238 2.93 3.02 6.141 5.262 9.633 6.723 4.64 1.969 9.992 2.953 16.055 2.953 10.976 0 19.761-3.414 26.351-10.238 6.59-6.828 9.883-16.316 9.883-28.469 0-12.058-3.27-21.488-9.805-28.293-6.539-6.812-15.281-10.215-26.222-10.215-11.082 0-19.891 3.387-26.43 10.161-6.539 6.777-9.809 16.101-9.809 27.992zm15.496 0.504c0-8.45 1.953-14.86 5.856-19.223s8.855-6.543 14.859-6.543 10.934 2.164 14.785 6.496 5.778 10.82 5.778 19.473c0 8.558-1.875 14.941-5.625 19.148s-8.731 6.317-14.938 6.317-11.215-2.133-15.012-6.387c-3.8-4.266-5.703-10.688-5.703-19.281z" fill="none" stroke="#231f20" stroke-width="1.6667"/>
   <path d="m361.62 406.25v74.609h14.598l30.715-50.074v50.074h13.929v-74.609h-15.058l-30.254 49.07v-49.07h-13.93" fill="#231f20"/>
   <path d="m361.62 406.25v74.609h14.598l30.715-50.074v50.074h13.929v-74.609h-15.058l-30.254 49.07v-49.07h-13.93z" fill="none" stroke="#231f20" stroke-width="1.6667"/>
   <path d="m433.72 442.97c0 7.601 1.136 13.984 3.406 19.148 1.695 3.801 4.008 7.211 6.937 10.238 2.93 3.02 6.141 5.262 9.629 6.723 4.641 1.969 9.996 2.953 16.059 2.953 10.976 0 19.762-3.414 26.351-10.238 6.59-6.828 9.883-16.316 9.883-28.469 0-12.058-3.269-21.488-9.808-28.293-6.539-6.812-15.282-10.215-26.223-10.215-11.078 0-19.887 3.387-26.426 10.161-6.539 6.777-9.808 16.101-9.808 27.992zm15.496 0.504c0-8.45 1.953-14.86 5.851-19.223s8.86-6.543 14.864-6.543 10.933 2.164 14.781 6.496 5.781 10.82 5.781 19.473c0 8.558-1.875 14.941-5.625 19.148s-8.73 6.317-14.937 6.317-11.215-2.133-15.016-6.387c-3.797-4.266-5.699-10.688-5.699-19.281" fill="#231f20"/>
   <path d="m433.72 442.97c0 7.601 1.136 13.984 3.406 19.148 1.695 3.801 4.008 7.211 6.937 10.238 2.93 3.02 6.141 5.262 9.629 6.723 4.641 1.969 9.996 2.953 16.059 2.953 10.976 0 19.762-3.414 26.351-10.238 6.59-6.828 9.883-16.316 9.883-28.469 0-12.058-3.269-21.488-9.808-28.293-6.539-6.812-15.282-10.215-26.223-10.215-11.078 0-19.887 3.387-26.426 10.161-6.539 6.777-9.808 16.101-9.808 27.992zm15.496 0.504c0-8.45 1.953-14.86 5.851-19.223s8.86-6.543 14.864-6.543 10.933 2.164 14.781 6.496 5.781 10.82 5.781 19.473c0 8.558-1.875 14.941-5.625 19.148s-8.73 6.317-14.937 6.317-11.215-2.133-15.016-6.387c-3.797-4.266-5.699-10.688-5.699-19.281z" fill="none" stroke="#231f20" stroke-width="1.6667"/>
   <path d="m534.54 406.25v61.98h-22.004v12.629h59.113v-12.629h-22.003v-61.98h-15.106" fill="#231f20"/>
   <path d="m534.54 406.25v61.98h-22.004v12.629h59.113v-12.629h-22.003v-61.98h-15.106z" fill="none" stroke="#231f20" stroke-width="1.6667"/>
   <path d="m607.32 442.97c0 7.601 1.137 13.984 3.407 19.148 1.695 3.801 4.007 7.211 6.937 10.238 2.93 3.02 6.141 5.262 9.629 6.723 4.645 1.969 9.996 2.953 16.059 2.953 10.976 0 19.761-3.414 26.351-10.238 6.59-6.828 9.883-16.316 9.883-28.469 0-12.058-3.269-21.488-9.805-28.293-6.539-6.812-15.281-10.215-26.226-10.215-11.078 0-19.887 3.387-26.426 10.161-6.539 6.777-9.809 16.101-9.809 27.992zm15.497 0.504c0-8.45 1.953-14.86 5.855-19.223s8.855-6.543 14.859-6.543 10.934 2.164 14.786 6.496 5.777 10.82 5.777 19.473c0 8.558-1.875 14.941-5.625 19.148s-8.731 6.317-14.938 6.317-11.214-2.133-15.011-6.387c-3.801-4.266-5.703-10.688-5.703-19.281" fill="#231f20"/>
   <path d="m607.32 442.97c0 7.601 1.137 13.984 3.407 19.148 1.695 3.801 4.007 7.211 6.937 10.238 2.93 3.02 6.141 5.262 9.629 6.723 4.645 1.969 9.996 2.953 16.059 2.953 10.976 0 19.761-3.414 26.351-10.238 6.59-6.828 9.883-16.316 9.883-28.469 0-12.058-3.269-21.488-9.805-28.293-6.539-6.812-15.281-10.215-26.226-10.215-11.078 0-19.887 3.387-26.426 10.161-6.539 6.777-9.809 16.101-9.809 27.992zm15.497 0.504c0-8.45 1.953-14.86 5.855-19.223s8.855-6.543 14.859-6.543 10.934 2.164 14.786 6.496 5.777 10.82 5.777 19.473c0 8.558-1.875 14.941-5.625 19.148s-8.731 6.317-14.938 6.317-11.214-2.133-15.011-6.387c-3.801-4.266-5.703-10.688-5.703-19.281z" fill="none" stroke="#231f20" stroke-width="1.6667"/>
   <path d="m691.469,406.25v74.609h24.125c9.136,0 15.094-.375 17.871-1.121 4.265-1.117 7.84-3.554 10.715-7.304s4.32-8.598 4.32-14.536c0-4.585-.828-8.433-2.488-11.558-1.653-3.121-3.758-5.578-6.309-7.36-2.555-1.781-5.148-2.96-7.785-3.535-3.582-.711-8.77-1.07-15.559-1.07h-9.789v-28.125h-15.101zm15.101,61.98v-21.226h8.203c5.911,0 9.86.391 11.852,1.172s3.551,2.012 4.684,3.676 1.695,3.605 1.695,5.812c0,2.723-.793,4.965-2.379,6.738s-3.598,2.875-6.027,3.313c-1.789.344-5.383.515-10.789.515h-7.239" fill="#231f20"/>
   <path d="m691.469,406.25v74.609h24.125c9.136,0 15.094-.375 17.871-1.121 4.265-1.117 7.84-3.554 10.715-7.304s4.32-8.598 4.32-14.536c0-4.585-.828-8.433-2.488-11.558-1.653-3.121-3.758-5.578-6.309-7.36-2.555-1.781-5.148-2.96-7.785-3.535-3.582-.711-8.77-1.07-15.559-1.07h-9.789v-28.125h-15.101zm15.101,61.98v-21.226h8.203c5.911,0 9.86.391 11.852,1.172s3.551,2.012 4.684,3.676 1.695,3.605 1.695,5.812c0,2.723-.793,4.965-2.379,6.738s-3.598,2.875-6.027,3.313c-1.789.344-5.383.515-10.789.515h-7.239z" fill="none" stroke="#231f20" stroke-width="1.6667"/>
   <path d="m760.94 406.25v74.609h55.207v-12.629h-40.101v-16.539h37.367v-12.628h-37.367v-20.184h41.535v-12.629h-56.641" fill="#231f20"/>
   <path d="m760.94 406.25v74.609h55.207v-12.629h-40.101v-16.539h37.367v-12.628h-37.367v-20.184h41.535v-12.629h-56.641z" fill="none" stroke="#231f20" stroke-width="1.6667"/>
   <path d="m830.426,406.25v74.609h31.594c7.941,0 13.718-.671 17.316-2.011s6.484-3.727 8.648-7.16 3.246-7.348 3.246-11.762c0-5.606-1.636-10.235-4.906-13.879-3.273-3.656-8.164-5.953-14.672-6.902 3.231-1.903 5.899-3.989 8.004-6.258s4.938-6.305 8.512-12.098l9.055-14.539h-17.981l-10.719,16.242c-3.851,5.789-6.488,9.434-7.902,10.938-1.422,1.508-2.922,2.539-4.508,3.101s-4.101.84-7.547.84h-3.039v-31.121h-15.101zm15.101,42.969h11.063c7.172,0 11.652.304 13.437.918 1.782.613 3.184,1.672 4.192,3.168s1.519,3.375 1.519,5.621c0,2.523-.664,4.558-2,6.109-1.324,1.551-3.207,2.528-5.633,2.938-1.21.172-4.847.257-10.906.257h-11.672v-19.011" fill="#231f20"/>
   <path d="m830.426,406.25v74.609h31.594c7.941,0 13.718-.671 17.316-2.011s6.484-3.727 8.648-7.16 3.246-7.348 3.246-11.762c0-5.606-1.636-10.235-4.906-13.879-3.273-3.656-8.164-5.953-14.672-6.902 3.231-1.903 5.899-3.989 8.004-6.258s4.938-6.305 8.512-12.098l9.055-14.539h-17.981l-10.719,16.242c-3.851,5.789-6.488,9.434-7.902,10.938-1.422,1.508-2.922,2.539-4.508,3.101s-4.101.84-7.547.84h-3.039v-31.121h-15.101zm15.101,42.969h11.063c7.172,0 11.652.304 13.437.918 1.782.613 3.184,1.672 4.192,3.168s1.519,3.375 1.519,5.621c0,2.523-.664,4.558-2,6.109-1.324,1.551-3.207,2.528-5.633,2.938-1.21.172-4.847.257-10.906.257h-11.672v-19.011z" fill="none" stroke="#231f20" stroke-width="1.6667"/>
   <path d="m972.96 406.25h-16.266l-6.465 16.926h-30.097l-6.199-16.926h-15.973l29.144 74.609h15.852l30.004-74.609zm-27.684 29.559-10.402 27.601-10.113-27.601h20.515" fill="#231f20"/>
   <path d="m972.96 406.25h-16.266l-6.465 16.926h-30.097l-6.199-16.926h-15.973l29.144 74.609h15.852l30.004-74.609zm-27.684 29.559-10.402 27.601-10.113-27.601h20.515z" fill="none" stroke="#231f20" stroke-width="1.6667"/>
   <path d="m989.81 406.25v61.98h-22.008v12.629h59.115v-12.629h-22.01v-61.98h-15.097" fill="#231f20"/>
   <path d="m989.81 406.25v61.98h-22.008v12.629h59.115v-12.629h-22.01v-61.98h-15.097z" fill="none" stroke="#231f20" stroke-width="1.6667"/>
   <path d="m1036.8 406.25v74.609h55.2v-12.629h-40.1v-16.539h37.37v-12.628h-37.37v-20.184h41.54v-12.629h-56.64" fill="#231f20"/>
   <path d="m1036.8 406.25v74.609h55.2v-12.629h-40.1v-16.539h37.37v-12.628h-37.37v-20.184h41.54v-12.629h-56.64z" fill="none" stroke="#231f20" stroke-width="1.6667"/>
   <path d="m198.57 150.13v12.633h32.422v-29.715c-3.156-3.055-7.726-5.742-13.718-8.07s-12.055-3.493-18.2-3.493c-7.804 0-14.609 1.637-20.414 4.914-5.801 3.278-10.164 7.961-13.078 14.055-2.922 6.098-4.379 12.731-4.379 19.891 0 7.781 1.629 14.687 4.891 20.73s8.031 10.68 14.316 13.906c4.785 2.477 10.746 3.719 17.883 3.719 9.27 0 16.512-1.949 21.727-5.847s8.566-9.282 10.062-16.161l-14.973-2.734c-1.054 3.664-3.035 6.551-5.945 8.672s-6.539 3.18-10.89 3.18c-6.598 0-11.84-2.094-15.735-6.27-3.894-4.172-5.844-10.367-5.844-18.582 0-8.863 1.977-15.508 5.93-19.937s9.129-6.645 15.535-6.645c3.168 0 6.344 0.617 9.528 1.848 3.183 1.238 5.918 2.726 8.203 4.484v9.422h-17.321" fill="#231f20"/>
   <path d="m198.57 150.13v12.633h32.422v-29.715c-3.156-3.055-7.726-5.742-13.718-8.07s-12.055-3.493-18.2-3.493c-7.804 0-14.609 1.637-20.414 4.914-5.801 3.278-10.164 7.961-13.078 14.055-2.922 6.098-4.379 12.731-4.379 19.891 0 7.781 1.629 14.687 4.891 20.73s8.031 10.68 14.316 13.906c4.785 2.477 10.746 3.719 17.883 3.719 9.27 0 16.512-1.949 21.727-5.847s8.566-9.282 10.062-16.161l-14.973-2.734c-1.054 3.664-3.035 6.551-5.945 8.672s-6.539 3.18-10.89 3.18c-6.598 0-11.84-2.094-15.735-6.27-3.894-4.172-5.844-10.367-5.844-18.582 0-8.863 1.977-15.508 5.93-19.937s9.129-6.645 15.535-6.645c3.168 0 6.344 0.617 9.528 1.848 3.183 1.238 5.918 2.726 8.203 4.484v9.422h-17.321z" fill="none" stroke="#231f20" stroke-width="1.6667"/>
   <path d="m244.695,197.527h15.106v-40.504c0-6.429.183-10.597.558-12.5 .645-3.058 2.172-5.519 4.594-7.371s5.731-2.777 9.926-2.777c4.266,0 7.48.875 9.648,2.629 2.164,1.75 3.469,3.898 3.911,6.449s.66,6.781.66,12.703v41.371h15.105v-39.269c0-8.977-.41-15.32-1.226-19.024-.813-3.711-2.313-6.836-4.504-9.382-2.188-2.555-5.114-4.582-8.778-6.098-3.668-1.512-8.453-2.27-14.355-2.27-7.125,0-12.531.825-16.215,2.473s-6.594,3.793-8.727,6.426c-2.14,2.633-3.546,5.398-4.226,8.289-.984,4.281-1.477,10.605-1.477,18.969v39.886" fill="#231f20"/>
   <path d="m244.695,197.527h15.106v-40.504c0-6.429.183-10.597.558-12.5 .645-3.058 2.172-5.519 4.594-7.371s5.731-2.777 9.926-2.777c4.266,0 7.48.875 9.648,2.629 2.164,1.75 3.469,3.898 3.911,6.449s.66,6.781.66,12.703v41.371h15.105v-39.269c0-8.977-.41-15.32-1.226-19.024-.813-3.711-2.313-6.836-4.504-9.382-2.188-2.555-5.114-4.582-8.778-6.098-3.668-1.512-8.453-2.27-14.355-2.27-7.125,0-12.531.825-16.215,2.473s-6.594,3.793-8.727,6.426c-2.14,2.633-3.546,5.398-4.226,8.289-.984,4.281-1.477,10.605-1.477,18.969v39.886z" fill="none" stroke="#231f20" stroke-width="1.6667"/>
   <path d="m387.5 122.92h-16.27l-6.46 16.926h-30.098l-6.203-16.926h-15.969l29.141 74.609h15.851l30.008-74.609zm-27.691 29.555-10.395 27.605-10.117-27.605h20.512" fill="#231f20"/>
   <path d="m387.5 122.92h-16.27l-6.46 16.926h-30.098l-6.203-16.926h-15.969l29.141 74.609h15.851l30.008-74.609zm-27.691 29.555-10.395 27.605-10.117-27.605h20.512z" fill="none" stroke="#231f20" stroke-width="1.6667"/>
   <path d="m395.406,122.918v74.609h31.598c7.945,0 13.715-.672 17.316-2.011s6.485-3.727 8.649-7.161c2.164-3.425 3.246-7.351 3.246-11.765 0-5.602-1.637-10.231-4.906-13.879s-8.164-5.953-14.672-6.902c3.23-1.899 5.898-3.985 8.004-6.258 2.101-2.27 4.941-6.301 8.511-12.098l9.051-14.535h-17.976l-10.723,16.242c-3.848,5.785-6.484,9.434-7.902,10.938s-2.918,2.539-4.504,3.101-4.102.836-7.547.836h-3.039v-31.117h-15.106zm15.106,42.969h11.062c7.172,0 11.653.304 13.438.918 1.785.609 3.183,1.668 4.195,3.168s1.512,3.375 1.512,5.621c0,2.523-.664,4.558-1.992,6.109s-3.211,2.524-5.633,2.938c-1.211.168-4.852.254-10.91.254h-11.672v-19.008" fill="#231f20"/>
   <path d="m395.406,122.918v74.609h31.598c7.945,0 13.715-.672 17.316-2.011s6.485-3.727 8.649-7.161c2.164-3.425 3.246-7.351 3.246-11.765 0-5.602-1.637-10.231-4.906-13.879s-8.164-5.953-14.672-6.902c3.23-1.899 5.898-3.985 8.004-6.258 2.101-2.27 4.941-6.301 8.511-12.098l9.051-14.535h-17.976l-10.723,16.242c-3.848,5.785-6.484,9.434-7.902,10.938s-2.918,2.539-4.504,3.101-4.102.836-7.547.836h-3.039v-31.117h-15.106zm15.106,42.969h11.062c7.172,0 11.653.304 13.438.918 1.785.609 3.183,1.668 4.195,3.168s1.512,3.375 1.512,5.621c0,2.523-.664,4.558-1.992,6.109s-3.211,2.524-5.633,2.938c-1.211.168-4.852.254-10.91.254h-11.672v-19.008z" fill="none" stroke="#231f20" stroke-width="1.6667"/>
   <path d="m470.633,197.527h27.457c6.187,0 10.91-.476 14.156-1.425 4.367-1.289 8.102-3.582 11.215-6.872s5.48-7.32 7.105-12.089 2.438-10.645 2.438-17.633c0-6.137-.762-11.438-2.281-15.879-1.864-5.43-4.52-9.824-7.973-13.18-2.602-2.543-6.121-4.531-10.555-5.953-3.316-1.055-7.746-1.578-13.293-1.578h-28.269v74.609zm15.105-12.632v-49.348h11.2c4.187,0 7.21.234 9.07.711 2.43.605 4.449,1.64 6.055,3.097 1.601,1.458 2.914,3.86 3.925,7.196 1.016,3.336 1.52,7.883 1.52,13.644s-.504,10.184-1.52,13.266c-1.011,3.086-2.433,5.484-4.254,7.219-1.828,1.726-4.14,2.894-6.941,3.504-2.098.476-6.203.711-12.316.711h-6.739" fill="#231f20"/>
   <path d="m470.633,197.527h27.457c6.187,0 10.91-.476 14.156-1.425 4.367-1.289 8.102-3.582 11.215-6.872s5.48-7.32 7.105-12.089 2.438-10.645 2.438-17.633c0-6.137-.762-11.438-2.281-15.879-1.864-5.43-4.52-9.824-7.973-13.18-2.602-2.543-6.121-4.531-10.555-5.953-3.316-1.055-7.746-1.578-13.293-1.578h-28.269v74.609zm15.105-12.632v-49.348h11.2c4.187,0 7.21.234 9.07.711 2.43.605 4.449,1.64 6.055,3.097 1.601,1.458 2.914,3.86 3.925,7.196 1.016,3.336 1.52,7.883 1.52,13.644s-.504,10.184-1.52,13.266c-1.011,3.086-2.433,5.484-4.254,7.219-1.828,1.726-4.14,2.894-6.941,3.504-2.098.476-6.203.711-12.316.711h-6.739z" fill="none" stroke="#231f20" stroke-width="1.6667"/>
   <path d="m541.824,147.266 14.711,1.433c.879-4.929 2.668-8.547 5.356-10.859s6.316-3.465 10.886-3.465c4.84,0 8.485,1.027 10.938,3.078s3.68,4.449 3.68,7.199c0,1.758-.516,3.266-1.547,4.5-1.035,1.239-2.84,2.313-5.414,3.231-1.762.605-5.778,1.68-12.043,3.226-8.063,1.985-13.723,4.434-16.973,7.348-4.574,4.094-6.859,9.086-6.859,14.973 0,3.793 1.074,7.34 3.23,10.636 2.156,3.239 5.262,5.817 9.32,7.543 4.055,1.727 8.954,2.59 14.692,2.59 9.367,0 16.418-2.074 21.156-6.211 4.734-4.14 7.223-9.668 7.461-16.578l-15.105-.519c-.641,3.839-2.024,6.601-4.137,8.285-2.117,1.679-5.289,2.523-9.524,2.523-4.367,0-7.785-.902-10.254-2.695-1.593-1.156-2.386-2.699-2.386-4.629 0-1.762.742-3.273 2.234-4.527 1.899-1.594 6.504-3.246 13.82-4.965s12.723-3.496 16.231-5.344c3.504-1.855 6.25-4.383 8.23-7.594s2.973-7.168 2.973-11.89c0-4.282-1.187-8.285-3.562-12.02s-5.739-6.508-10.083-8.324-9.753-2.727-16.234-2.727c-9.433,0-16.68,2.2-21.734,6.582-5.059,4.395-8.078,10.793-9.063,19.2" fill="#231f20"/>
   <path d="m541.824,147.266 14.711,1.433c.879-4.929 2.668-8.547 5.356-10.859s6.316-3.465 10.886-3.465c4.84,0 8.485,1.027 10.938,3.078s3.68,4.449 3.68,7.199c0,1.758-.516,3.266-1.547,4.5-1.035,1.239-2.84,2.313-5.414,3.231-1.762.605-5.778,1.68-12.043,3.226-8.063,1.985-13.723,4.434-16.973,7.348-4.574,4.094-6.859,9.086-6.859,14.973 0,3.793 1.074,7.34 3.23,10.636 2.156,3.239 5.262,5.817 9.32,7.543 4.055,1.727 8.954,2.59 14.692,2.59 9.367,0 16.418-2.074 21.156-6.211 4.734-4.14 7.223-9.668 7.461-16.578l-15.105-.519c-.641,3.839-2.024,6.601-4.137,8.285-2.117,1.679-5.289,2.523-9.524,2.523-4.367,0-7.785-.902-10.254-2.695-1.593-1.156-2.386-2.699-2.386-4.629 0-1.762.742-3.273 2.234-4.527 1.899-1.594 6.504-3.246 13.82-4.965s12.723-3.496 16.231-5.344c3.504-1.855 6.25-4.383 8.23-7.594s2.973-7.168 2.973-11.89c0-4.282-1.187-8.285-3.562-12.02s-5.739-6.508-10.083-8.324-9.753-2.727-16.234-2.727c-9.433,0-16.68,2.2-21.734,6.582-5.059,4.395-8.078,10.793-9.063,19.2z" fill="none" stroke="#231f20" stroke-width="1.6667"/>
   <path d="m643.76 122.92h15.106v74.609h-15.106v-74.609z" fill="#231f20"/>
   <path d="m643.76 122.92h15.106v74.609h-15.106v-74.609z" fill="none" stroke="#231f20" stroke-width="1.6667"/>
   <path d="m673.22 122.92v74.609h14.597l30.715-50.074v50.074h13.93v-74.609h-15.055l-30.258 49.07v-49.07h-13.929" fill="#231f20"/>
   <path d="m673.22 122.92v74.609h14.597l30.715-50.074v50.074h13.93v-74.609h-15.055l-30.258 49.07v-49.07h-13.929z" fill="none" stroke="#231f20" stroke-width="1.6667"/>
   <path d="m777.383,122.918v74.609h24.125c9.14,0 15.101-.375 17.875-1.125 4.265-1.113 7.84-3.55 10.719-7.304s4.312-8.598 4.312-14.532c0-4.586-.824-8.437-2.48-11.562-1.657-3.121-3.762-5.574-6.317-7.356-2.547-1.781-5.14-2.964-7.777-3.535-3.582-.715-8.774-1.07-15.567-1.07h-9.785v-28.125h-15.105zm15.105,61.977v-21.223h8.203c5.911,0 9.86.391 11.848,1.172 1.996.781 3.559,2.011 4.688,3.676 1.132,1.664 1.695,3.605 1.695,5.812 0,2.723-.789,4.965-2.379,6.738s-3.594,2.875-6.027,3.313c-1.793.344-5.383.512-10.786.512h-7.242" fill="#231f20"/>
   <path d="m777.383,122.918v74.609h24.125c9.14,0 15.101-.375 17.875-1.125 4.265-1.113 7.84-3.55 10.719-7.304s4.312-8.598 4.312-14.532c0-4.586-.824-8.437-2.48-11.562-1.657-3.121-3.762-5.574-6.317-7.356-2.547-1.781-5.14-2.964-7.777-3.535-3.582-.715-8.774-1.07-15.567-1.07h-9.785v-28.125h-15.105zm15.105,61.977v-21.223h8.203c5.911,0 9.86.391 11.848,1.172 1.996.781 3.559,2.011 4.688,3.676 1.132,1.664 1.695,3.605 1.695,5.812 0,2.723-.789,4.965-2.379,6.738s-3.594,2.875-6.027,3.313c-1.793.344-5.383.512-10.786.512h-7.242z" fill="none" stroke="#231f20" stroke-width="1.6667"/>
   <path d="m847.13 122.92v73.957h15.101v-61.328h37.5v-12.629h-52.601" fill="#231f20"/>
   <path d="m847.13 122.92v73.957h15.101v-61.328h37.5v-12.629h-52.601z" fill="none" stroke="#231f20" stroke-width="1.6667"/>
   <path d="m977.81 122.92h-16.274l-6.461 16.926h-30.094l-6.203-16.926h-15.968l29.136 74.609h15.856l30.008-74.609zm-27.692 29.555-10.394 27.605-10.118-27.605h20.512" fill="#231f20"/>
   <path d="m977.81 122.92h-16.274l-6.461 16.926h-30.094l-6.203-16.926h-15.968l29.136 74.609h15.856l30.008-74.609zm-27.692 29.555-10.394 27.605-10.118-27.605h20.512z" fill="none" stroke="#231f20" stroke-width="1.6667"/>
   <path d="m1033.5 150.39 14.59-4.559c-2.25-8.195-5.98-14.277-11.19-18.254-5.22-3.976-11.84-5.965-19.86-5.965-9.92 0-18.083 3.383-24.47 10.145s-9.586 16.008-9.586 27.738c0 12.402 3.211 22.039 9.625 28.906 6.422 6.864 14.861 10.297 25.321 10.297 9.13 0 16.55-2.703 22.25-8.105 3.4-3.199 5.95-7.789 7.65-13.77l-14.85-3.515c-0.88 3.859-2.73 6.906-5.54 9.144-2.81 2.235-6.23 3.356-10.25 3.356-5.55 0-10.06-1.985-13.52-5.942s-5.193-10.383-5.193-19.254c0-9.418 1.703-16.117 5.113-20.113s7.84-5.996 13.3-5.996c4.02 0 7.49 1.277 10.38 3.836 2.9 2.551 4.97 6.566 6.23 12.051" fill="#231f20"/>
   <path d="m1033.5 150.39 14.59-4.559c-2.25-8.195-5.98-14.277-11.19-18.254-5.22-3.976-11.84-5.965-19.86-5.965-9.92 0-18.083 3.383-24.47 10.145s-9.586 16.008-9.586 27.738c0 12.402 3.211 22.039 9.625 28.906 6.422 6.864 14.861 10.297 25.321 10.297 9.13 0 16.55-2.703 22.25-8.105 3.4-3.199 5.95-7.789 7.65-13.77l-14.85-3.515c-0.88 3.859-2.73 6.906-5.54 9.144-2.81 2.235-6.23 3.356-10.25 3.356-5.55 0-10.06-1.985-13.52-5.942s-5.193-10.383-5.193-19.254c0-9.418 1.703-16.117 5.113-20.113s7.84-5.996 13.3-5.996c4.02 0 7.49 1.277 10.38 3.836 2.9 2.551 4.97 6.566 6.23 12.051z" fill="none" stroke="#231f20" stroke-width="1.6667"/>
   <path d="m1061 122.92v74.609h55.2v-12.632h-40.1v-16.536h37.37v-12.629h-37.37v-20.183h41.54v-12.629h-56.64" fill="#231f20"/>
   <path d="m1061 122.92v74.609h55.2v-12.632h-40.1v-16.536h37.37v-12.629h-37.37v-20.183h41.54v-12.629h-56.64z" fill="none" stroke="#231f20" stroke-width="1.6667"/>
   <path d="m70.832 264.58v61.981h-20.703v12.628h55.601v-12.628h-20.703v-61.981h-14.195" fill="#231f20"/>
   <path d="m70.832 264.58v61.981h-20.703v12.628h55.601v-12.628h-20.703v-61.981h-14.195z" fill="none" stroke="#231f20" stroke-width="1.6667"/>
   <path d="m114.91 264.58v74.609h14.191v-29.425h27.606v29.425h14.191v-74.609h-14.191v32.555h-27.606v-32.555h-14.191" fill="#231f20"/>
   <path d="m114.91 264.58v74.609h14.191v-29.425h27.606v29.425h14.191v-74.609h-14.191v32.555h-27.606v-32.555h-14.191z" fill="none" stroke="#231f20" stroke-width="1.6667"/>
   <path d="m185.13 264.58h14.191v74.609h-14.191v-74.609z" fill="#231f20"/>
   <path d="m185.13 264.58h14.191v74.609h-14.191v-74.609z" fill="none" stroke="#231f20" stroke-width="1.6667"/>
   <path d="m209.09,288.934 13.801,1.429c.832-4.925 2.519-8.547 5.062-10.859s5.973-3.461 10.289-3.461c4.574,0 8.02,1.023 10.34,3.074s3.477,4.453 3.477,7.199c0,1.762-.489,3.262-1.461,4.5s-2.672,2.317-5.098,3.231c-1.66.605-5.445,1.68-11.348,3.23-7.597,1.981-12.929,4.43-15.996,7.34-4.308,4.098-6.461,9.09-6.461,14.981 0,3.793 1.012,7.336 3.043,10.636s4.957,5.813 8.778,7.539c3.82,1.723 8.429,2.59 13.836,2.59 8.82,0 15.461-2.07 19.921-6.211s6.801-9.664 7.024-16.574l-14.192-.519c-.609,3.836-1.91,6.597-3.91,8.277-2.004,1.687-5.004,2.527-9.004,2.527-4.128,0-7.363-.898-9.699-2.695-1.504-1.152-2.258-2.695-2.258-4.629 0-1.762.704-3.269 2.11-4.523 1.789-1.594 6.133-3.25 13.031-4.965 6.902-1.715 12.004-3.5 15.309-5.352 3.308-1.851 5.894-4.375 7.765-7.586s2.801-7.172 2.801-11.89c0-4.282-1.117-8.285-3.355-12.02s-5.403-6.512-9.497-8.328-9.191-2.723-15.296-2.723c-8.887,0-15.711,2.192-20.473,6.582-4.766,4.391-7.609,10.793-8.539,19.2" fill="#231f20"/>
   <path d="m209.09,288.934 13.801,1.429c.832-4.925 2.519-8.547 5.062-10.859s5.973-3.461 10.289-3.461c4.574,0 8.02,1.023 10.34,3.074s3.477,4.453 3.477,7.199c0,1.762-.489,3.262-1.461,4.5s-2.672,2.317-5.098,3.231c-1.66.605-5.445,1.68-11.348,3.23-7.597,1.981-12.929,4.43-15.996,7.34-4.308,4.098-6.461,9.09-6.461,14.981 0,3.793 1.012,7.336 3.043,10.636s4.957,5.813 8.778,7.539c3.82,1.723 8.429,2.59 13.836,2.59 8.82,0 15.461-2.07 19.921-6.211s6.801-9.664 7.024-16.574l-14.192-.519c-.609,3.836-1.91,6.597-3.91,8.277-2.004,1.687-5.004,2.527-9.004,2.527-4.128,0-7.363-.898-9.699-2.695-1.504-1.152-2.258-2.695-2.258-4.629 0-1.762.704-3.269 2.11-4.523 1.789-1.594 6.133-3.25 13.031-4.965 6.902-1.715 12.004-3.5 15.309-5.352 3.308-1.851 5.894-4.375 7.765-7.586s2.801-7.172 2.801-11.89c0-4.282-1.117-8.285-3.355-12.02s-5.403-6.512-9.497-8.328-9.191-2.723-15.296-2.723c-8.887,0-15.711,2.192-20.473,6.582-4.766,4.391-7.609,10.793-8.539,19.2z" fill="none" stroke="#231f20" stroke-width="1.6667"/>
   <path d="m305.16 264.58v74.609h21.227l12.691-50.894 12.442 50.894h21.347v-74.609h-13.148l-0.067 58.731-13.828-58.731h-13.636l-13.813 58.731-0.062-58.731h-13.153" fill="#231f20"/>
   <path d="m305.16 264.58v74.609h21.227l12.691-50.894 12.442 50.894h21.347v-74.609h-13.148l-0.067 58.731-13.828-58.731h-13.636l-13.813 58.731-0.062-58.731h-13.153z" fill="none" stroke="#231f20" stroke-width="1.6667"/>
   <path d="m450.16 264.58h-15.281l-6.063 16.93h-28.164l-5.793-16.93h-15.011l27.179 74.609h14.91l28.223-74.609zm-26 29.559-9.742 27.605-9.445-27.605h19.187" fill="#231f20"/>
   <path d="m450.16 264.58h-15.281l-6.063 16.93h-28.164l-5.793-16.93h-15.011l27.179 74.609h14.91l28.223-74.609zm-26 29.559-9.742 27.605-9.445-27.605h19.187z" fill="none" stroke="#231f20" stroke-width="1.6667"/>
   <path d="m502.8 292.06 13.672-4.559c-2.11-8.195-5.618-14.277-10.524-18.254-4.902-3.98-11.121-5.965-18.664-5.965-9.328 0-16.996 3.383-23.004 10.145-6.004 6.762-9.008 16.008-9.008 27.734 0 12.406 3.02 22.043 9.067 28.906 6.043 6.864 13.992 10.297 23.844 10.297 8.601 0 15.589-2.703 20.96-8.109 3.2-3.191 5.598-7.781 7.196-13.766l-14.063-3.515c-0.832 3.863-2.57 6.91-5.211 9.144-2.64 2.238-5.851 3.356-9.629 3.356-5.222 0-9.453-1.981-12.707-5.946s-4.875-10.379-4.875-19.25c0-9.414 1.606-16.117 4.813-20.113 3.203-3.996 7.371-5.992 12.504-5.992 3.781 0 7.035 1.273 9.762 3.828 2.722 2.555 4.679 6.57 5.867 12.059" fill="#231f20"/>
   <path d="m502.8 292.06 13.672-4.559c-2.11-8.195-5.618-14.277-10.524-18.254-4.902-3.98-11.121-5.965-18.664-5.965-9.328 0-16.996 3.383-23.004 10.145-6.004 6.762-9.008 16.008-9.008 27.734 0 12.406 3.02 22.043 9.067 28.906 6.043 6.864 13.992 10.297 23.844 10.297 8.601 0 15.589-2.703 20.96-8.109 3.2-3.191 5.598-7.781 7.196-13.766l-14.063-3.515c-0.832 3.863-2.57 6.91-5.211 9.144-2.64 2.238-5.851 3.356-9.629 3.356-5.222 0-9.453-1.981-12.707-5.946s-4.875-10.379-4.875-19.25c0-9.414 1.606-16.117 4.813-20.113 3.203-3.996 7.371-5.992 12.504-5.992 3.781 0 7.035 1.273 9.762 3.828 2.722 2.555 4.679 6.57 5.867 12.059z" fill="none" stroke="#231f20" stroke-width="1.6667"/>
   <path d="m528.49 264.58v74.609h14.192v-29.425h27.605v29.425h14.191v-74.609h-14.191v32.555h-27.605v-32.555h-14.192" fill="#231f20"/>
   <path d="m528.49 264.58v74.609h14.192v-29.425h27.605v29.425h14.191v-74.609h-14.191v32.555h-27.605v-32.555h-14.192z" fill="none" stroke="#231f20" stroke-width="1.6667"/>
   <path d="m598.71 264.58h14.191v74.609h-14.191v-74.609z" fill="#231f20"/>
   <path d="m598.71 264.58h14.191v74.609h-14.191v-74.609z" fill="none" stroke="#231f20" stroke-width="1.6667"/>
   <path d="m626.44 264.58v74.609h13.778l28.8-49.875v49.875h13.153v-74.609h-14.207l-28.371 48.875v-48.875h-13.153" fill="#231f20"/>
   <path d="m626.44 264.58v74.609h13.778l28.8-49.875v49.875h13.153v-74.609h-14.207l-28.371 48.875v-48.875h-13.153z" fill="none" stroke="#231f20" stroke-width="1.6667"/>
   <path d="m697.18 264.58v74.609h52.082v-12.628h-37.887v-16.536h35.285v-12.632h-35.285v-20.18h39.191v-12.633h-53.386" fill="#231f20"/>
   <path d="m697.18 264.58v74.609h52.082v-12.628h-37.887v-16.536h35.285v-12.632h-35.285v-20.18h39.191v-12.633h-53.386z" fill="none" stroke="#231f20" stroke-width="1.6667"/>
   <path d="m799.36 264.58-16.39 74.609h14.586l10.347-51.25 12.809 51.25h16.863l12.254-52.113 10.696 52.113h14.242l-16.907-74.609h-15.07l-13.922 55.777-13.941-55.777h-15.567" fill="#231f20"/>
   <path d="m799.36 264.58-16.39 74.609h14.586l10.347-51.25 12.809 51.25h16.863l12.254-52.113 10.696 52.113h14.242l-16.907-74.609h-15.07l-13.922 55.777-13.941-55.777h-15.567z" fill="none" stroke="#231f20" stroke-width="1.6667"/>
   <path d="m881.67 264.58h14.195v74.609h-14.195v-74.609z" fill="#231f20"/>
   <path d="m881.67 264.58h14.195v74.609h-14.195v-74.609z" fill="none" stroke="#231f20" stroke-width="1.6667"/>
   <path d="m925.16 264.58v61.981h-20.703v12.628h55.598v-12.628h-20.703v-61.981h-14.192" fill="#231f20"/>
   <path d="m925.16 264.58v61.981h-20.703v12.628h55.598v-12.628h-20.703v-61.981h-14.192z" fill="none" stroke="#231f20" stroke-width="1.6667"/>
   <path d="m969.24 264.58v74.609h14.192v-29.425h27.61v29.425h14.19v-74.609h-14.19v32.555h-27.61v-32.555h-14.192" fill="#231f20"/>
   <path d="m969.24 264.58v74.609h14.192v-29.425h27.61v29.425h14.19v-74.609h-14.19v32.555h-27.61v-32.555h-14.192z" fill="none" stroke="#231f20" stroke-width="1.6667"/>
   <path d="m1037.1 301.3c0 7.605 1.07 13.988 3.21 19.152 1.59 3.801 3.76 7.211 6.52 10.235 2.75 3.023 5.77 5.265 9.05 6.726 4.37 1.969 9.41 2.953 15.11 2.953 10.32 0 18.59-3.414 24.79-10.234 6.19-6.828 9.29-16.32 9.29-28.473 0-12.058-3.08-21.488-9.22-28.297-6.15-6.808-14.38-10.207-24.67-10.207-10.42 0-18.71 3.383-24.85 10.161-6.16 6.773-9.23 16.101-9.23 27.984zm14.59 0.512c0-8.454 1.83-14.864 5.5-19.223 3.66-4.363 8.32-6.543 13.97-6.543s10.28 2.16 13.9 6.488 5.43 10.824 5.43 19.481c0 8.554-1.77 14.937-5.29 19.148-3.53 4.207-8.21 6.313-14.04 6.313-5.84 0-10.54-2.133-14.12-6.391-3.57-4.262-5.35-10.687-5.35-19.273" fill="#231f20"/>
   <path d="m1037.1 301.3c0 7.605 1.07 13.988 3.21 19.152 1.59 3.801 3.76 7.211 6.52 10.235 2.75 3.023 5.77 5.265 9.05 6.726 4.37 1.969 9.41 2.953 15.11 2.953 10.32 0 18.59-3.414 24.79-10.234 6.19-6.828 9.29-16.32 9.29-28.473 0-12.058-3.08-21.488-9.22-28.297-6.15-6.808-14.38-10.207-24.67-10.207-10.42 0-18.71 3.383-24.85 10.161-6.16 6.773-9.23 16.101-9.23 27.984zm14.59 0.512c0-8.454 1.83-14.864 5.5-19.223 3.66-4.363 8.32-6.543 13.97-6.543s10.28 2.16 13.9 6.488 5.43 10.824 5.43 19.481c0 8.554-1.77 14.937-5.29 19.148-3.53 4.207-8.21 6.313-14.04 6.313-5.84 0-10.54-2.133-14.12-6.391-3.57-4.262-5.35-10.687-5.35-19.273z" fill="none" stroke="#231f20" stroke-width="1.6667"/>
   <path d="m1116.04,339.191h14.19v-40.5c0-6.429.17-10.597.52-12.5 .61-3.062 2.04-5.519 4.31-7.371 2.27-1.855 5.38-2.777 9.31-2.777 4,0 7.02.875 9.05,2.625s3.25,3.898 3.67,6.453c.41,2.551.62,6.781.62,12.703v41.367h14.19v-39.269c0-8.977-.38-15.32-1.15-19.027-.76-3.707-2.17-6.832-4.23-9.383-2.05-2.551-4.8-4.582-8.24-6.094s-7.93-2.266-13.48-2.266c-6.69,0-11.76.825-15.21,2.473-3.46,1.648-6.19,3.789-8.2,6.426-2.01,2.633-3.33,5.394-3.97,8.289-.92,4.281-1.38,10.601-1.38,18.969v39.882" fill="#231f20"/>
   <path d="m1116.04,339.191h14.19v-40.5c0-6.429.17-10.597.52-12.5 .61-3.062 2.04-5.519 4.31-7.371 2.27-1.855 5.38-2.777 9.31-2.777 4,0 7.02.875 9.05,2.625s3.25,3.898 3.67,6.453c.41,2.551.62,6.781.62,12.703v41.367h14.19v-39.269c0-8.977-.38-15.32-1.15-19.027-.76-3.707-2.17-6.832-4.23-9.383-2.05-2.551-4.8-4.582-8.24-6.094s-7.93-2.266-13.48-2.266c-6.69,0-11.76.825-15.21,2.473-3.46,1.648-6.19,3.789-8.2,6.426-2.01,2.633-3.33,5.394-3.97,8.289-.92,4.281-1.38,10.601-1.38,18.969v39.882z" fill="none" stroke="#231f20" stroke-width="1.6667"/>
   <path d="m1202.7 264.58v61.981h-20.7v12.628h55.6v-12.628h-20.7v-61.981h-14.2" fill="#231f20"/>
   <path d="m1202.7 264.58v61.981h-20.7v12.628h55.6v-12.628h-20.7v-61.981h-14.2z" fill="none" stroke="#231f20" stroke-width="1.6667"/>
  </g>
 </g>
</svg>
